# xmcd
#
# Track frame offsets:
#	150
#	17523
#	35571
#	50694
#	64917
#	79590
#	95163
#	110511
#	128484
#	143832
#
# Disc length: 2119 seconds
#
# Revision: 1
# Processed by: cddbd v1.5.2PL0 Copyright (c) Steve Scherf et al.
# Submitted via: audiograbber 1.83.01
#
DISCID=8408450a
DTITLE=Bellamy Brothers - At Their Best
DYEAR=1900
DGENRE=
TTITLE0=Hard Way to Make an Easy Living
TTITLE1=Old Hippie
TTITLE2=Redneck Girl
TTITLE3=If I Said You Had a Beautiful Body (Would You Hold It Against Me)
TTITLE4=Let Your Love Flow
TTITLE5=Cowboy Beat
TTITLE6=I'd Lie to You for Your Love
TTITLE7=She's Gone With the Wind
TTITLE8=Kids of the Baby Boom
TTITLE9=Can I Come on Home to You
EXTD=
EXTT0=
EXTT1=
EXTT2=
EXTT3=
EXTT4=
EXTT5=
EXTT6=
EXTT7=
EXTT8=
EXTT9=
PLAYORDER=
